<svg width="512" height="512" viewBox="0 0 512 512" fill="none" xmlns="http://www.w3.org/2000/svg">
  <defs>
    <linearGradient id="bg" x1="0" y1="0" x2="0" y2="1">
      <stop offset="0%" stop-color="#3460ff"/>
      <stop offset="100%" stop-color="#1f3a99"/>
    </linearGradient>
  </defs>
  <rect width="512" height="512" rx="112" fill="url(#bg)"/>
  <g transform="translate(118.4 118.4) scale(13.76)" fill="#ffffff">
    <path d="M15.6083 14.269V5.10538C15.6083 4.91276 15.5243 4.69596 15.3207 4.51319C15.1126 4.3265 14.8045 4.20239 14.4598 4.20236C14.1149 4.20236 13.8069 4.32649 13.5988 4.51319C13.3951 4.69598 13.3107 4.91272 13.3106 5.10538V16.902C13.3106 17.7704 12.9249 18.5713 12.2924 19.1389C11.6642 19.7025 10.8379 20.0001 10 20.0001C9.16212 20.0001 8.33578 19.7026 7.70757 19.1389C7.07507 18.5713 6.68942 17.7704 6.68936 16.902V9.20406C6.68931 9.0114 6.60487 8.79466 6.40116 8.61188C6.19311 8.42526 5.88545 8.3011 5.54078 8.30104C5.19599 8.30104 4.88795 8.42519 4.67986 8.61188C4.47615 8.79466 4.39171 9.0114 4.39166 9.20406V16.3178C4.39166 17.1864 4.006 17.9877 3.37345 18.5553C2.74523 19.1189 1.91888 19.4165 1.08102 19.4165C0.484048 19.4165 9.30356e-05 18.925 0 18.3189C0 17.7128 0.483991 17.2214 1.08102 17.2214C1.42583 17.2214 1.73384 17.0972 1.94194 16.9105C2.14571 16.7277 2.22961 16.5105 2.22961 16.3178V9.20406C2.22966 8.33563 2.61539 7.53469 3.24782 6.96715C3.87606 6.40344 4.70286 6.10593 5.54078 6.10593C6.37861 6.10599 7.20502 6.40349 7.8332 6.96715C8.46566 7.53469 8.85136 8.33561 8.85141 9.20406V16.902C8.85147 17.0946 8.93545 17.3114 9.13909 17.4941C9.34716 17.6808 9.65521 17.8049 10 17.805C10.3448 17.805 10.6528 17.6809 10.8609 17.4941C11.0646 17.3114 11.1485 17.0946 11.1486 16.902V5.10538C11.1486 4.23697 11.5344 3.436 12.1668 2.86847C12.795 2.30476 13.6218 2.00725 14.4598 2.00725C15.2976 2.00728 16.124 2.30479 16.7522 2.86847C17.3847 3.43601 17.7703 4.2369 17.7704 5.10538V14.269C17.7704 14.4617 17.8548 14.6783 18.0586 14.8612C18.2666 15.0478 18.5743 15.172 18.919 15.172C19.516 15.172 19.9999 15.6635 20 16.2696C20 16.8757 19.516 17.3671 18.919 17.3671C18.0811 17.3671 17.2547 17.0696 16.6265 16.5059C15.9941 15.9383 15.6083 15.1375 15.6083 14.269Z"/>
    <path d="M7.8402 2.19519C7.8402 3.40752 6.87221 4.3903 5.67815 4.3903C4.48408 4.3903 3.5161 3.40752 3.5161 2.19519C3.5161 0.982866 4.48408 8.15392e-05 5.67815 8.15392e-05C6.87221 8.15392e-05 7.8402 0.982866 7.8402 2.19519Z"/>
  </g>
</svg>
